<?xml version="1.0" encoding="UTF-8"?>
<svg version="1.1" xmlns="http://www.w3.org/2000/svg" width="512" height="512">
<path d="M0 0 C3.56539274 1.4579161 5.22448057 3.26144537 7.48999023 6.34204102 C28.87044009 35.10945603 28.87044009 35.10945603 60.21626568 49.55855656 C68.9014854 50.56303343 77.5852501 50.60671013 86.3125 50.3125 C87.09933544 50.28607044 87.88617088 50.25964088 88.69684982 50.23241043 C98.50535483 49.86675177 108.2473684 49.11492967 118 48 C117.90815933 48.76006851 117.81631866 49.52013702 117.72169495 50.30323792 C116.60765377 60.04251389 115.91538962 69.76701247 115.5625 79.5625 C115.5341444 80.34179745 115.5057888 81.12109489 115.47657394 81.92400742 C114.85206647 102.44140156 116.91716612 118.20245308 131.08173943 133.74859428 C134.7377376 137.62698971 138.59332228 141.2578419 142.5625 144.8125 C143.12366138 145.31545216 143.68482277 145.81840431 144.26298904 146.33659744 C151.25713223 152.55410691 158.48472747 158.41929971 166 164 C164.5420839 167.56539274 162.73855463 169.22448057 159.65795898 171.48999023 C130.89054397 192.87044009 130.89054397 192.87044009 116.44144344 224.21626568 C115.43696657 232.9014854 115.39328987 241.5852501 115.6875 250.3125 C115.71392956 251.09933544 115.74035912 251.88617088 115.76758957 252.69684982 C116.13324823 262.50535483 116.88507033 272.2473684 118 282 C117.23993149 281.90815933 116.47986298 281.81631866 115.69676208 281.72169495 C105.95748611 280.60765377 96.23298753 279.91538962 86.4375 279.5625 C85.65820255 279.5341444 84.87890511 279.5057888 84.07599258 279.47657394 C63.55859844 278.85206647 47.79754692 280.91716612 32.25140572 295.08173943 C28.37301029 298.7377376 24.7421581 302.59332228 21.1875 306.5625 C20.68454784 307.12366138 20.18159569 307.68482277 19.66340256 308.26298904 C13.44589309 315.25713223 7.58070029 322.48472747 2 330 C-1.56539274 328.5420839 -3.22448057 326.73855463 -5.48999023 323.65795898 C-26.87044009 294.89054397 -26.87044009 294.89054397 -58.21626568 280.44144344 C-66.9014854 279.43696657 -75.5852501 279.39328987 -84.3125 279.6875 C-85.09933544 279.71392956 -85.88617088 279.74035912 -86.69684982 279.76758957 C-96.50535483 280.13324823 -106.2473684 280.88507033 -116 282 C-115.90815933 281.23993149 -115.81631866 280.47986298 -115.72169495 279.69676208 C-114.60765377 269.95748611 -113.91538962 260.23298753 -113.5625 250.4375 C-113.5341444 249.65820255 -113.5057888 248.87890511 -113.47657394 248.07599258 C-112.85206647 227.55859844 -114.91716612 211.79754692 -129.08173943 196.25140572 C-132.7377376 192.37301029 -136.59332228 188.7421581 -140.5625 185.1875 C-141.40424208 184.43307177 -141.40424208 184.43307177 -142.26298904 183.66340256 C-149.25713223 177.44589309 -156.48472747 171.58070029 -164 166 C-162.5420839 162.43460726 -160.73855463 160.77551943 -157.65795898 158.51000977 C-128.89054397 137.12955991 -128.89054397 137.12955991 -114.44144344 105.78373432 C-113.43696657 97.0985146 -113.39328987 88.4147499 -113.6875 79.6875 C-113.71392956 78.90066456 -113.74035912 78.11382912 -113.76758957 77.30315018 C-114.13324823 67.49464517 -114.88507033 57.7526316 -116 48 C-114.85989723 48.137761 -114.85989723 48.137761 -113.69676208 48.27830505 C-103.95748611 49.39234623 -94.23298753 50.08461038 -84.4375 50.4375 C-83.65820255 50.4658556 -82.87890511 50.4942112 -82.07599258 50.52342606 C-61.55859844 51.14793353 -45.79754692 49.08283388 -30.25140572 34.91826057 C-26.37301029 31.2622624 -22.7421581 27.40667772 -19.1875 23.4375 C-18.43307177 22.59575792 -18.43307177 22.59575792 -17.66340256 21.73701096 C-11.44589309 14.74286777 -5.58070029 7.51527253 0 0 Z " fill="#000000" transform="translate(255,91)"/>
</svg>
