<?xml version="1.0" encoding="UTF-8"?>
<svg version="1.1" xmlns="http://www.w3.org/2000/svg" width="512" height="126">
<path d="M0 0 C1.65340246 -0.00668677 1.65340246 -0.00668677 3.34020698 -0.01350862 C5.17168523 -0.01323207 5.17168523 -0.01323207 7.04016304 -0.01294994 C8.32945217 -0.01662663 9.6187413 -0.02030332 10.9470998 -0.02409142 C14.53775752 -0.03412802 18.12839853 -0.03783087 21.71906829 -0.04048073 C25.58691035 -0.0443788 29.45473912 -0.05395738 33.32257271 -0.0626936 C42.66851634 -0.08247072 52.01446108 -0.09252519 61.36042041 -0.10142139 C65.75811534 -0.1058017 70.15580906 -0.11116912 74.55350304 -0.11641026 C89.16595078 -0.13342277 103.77839776 -0.14791839 118.39085388 -0.155159 C122.18420475 -0.15706899 125.97755561 -0.15898931 129.77090645 -0.16094494 C131.18518748 -0.16167055 131.18518748 -0.16167055 132.62803985 -0.16241082 C147.9121164 -0.17071657 163.19611483 -0.19606255 178.48015724 -0.22852562 C194.16029353 -0.26155942 209.84039006 -0.27960437 225.52056134 -0.28280324 C234.32918588 -0.28497161 243.13769645 -0.29376805 251.94628716 -0.31926441 C259.44578388 -0.34092113 266.94513895 -0.3490467 274.44466339 -0.33929763 C278.27303732 -0.33473841 282.10111869 -0.33673254 285.9294529 -0.35605907 C290.07512564 -0.37680751 294.22014338 -0.36675245 298.36584663 -0.35352612 C300.19063272 -0.36997998 300.19063272 -0.36997998 302.05228317 -0.38676625 C303.15976697 -0.37818536 304.26725076 -0.36960447 305.40829468 -0.36076355 C306.36562465 -0.36174036 307.32295461 -0.36271717 308.30929458 -0.36372358 C311.58511905 0.2833916 312.76379356 1.56552265 314.82998848 4.13422108 C315.70498848 6.75922108 315.70498848 6.75922108 315.82998848 9.13422108 C315.16998848 9.79422108 314.50998848 10.45422108 313.82998848 11.13422108 C314.11982116 14.44105574 314.11982116 14.44105574 315.82998848 17.13422108 C319.24623106 17.46776511 319.24623106 17.46776511 322.82998848 17.13422108 C323.57248848 16.36078358 323.57248848 16.36078358 324.32998848 15.57172108 C325.82998848 14.13422108 325.82998848 14.13422108 328.95498848 14.07172108 C335.04268921 15.27375116 340.90575025 19.1905283 344.39248848 24.32172108 C346.69834477 28.95430114 346.15771769 34.09993633 345.82998848 39.13422108 C346.69623848 39.15484608 347.56248848 39.17547108 348.45498848 39.19672108 C353.00669418 40.46108377 355.46120152 43.07704342 357.82998848 47.13422108 C357.82998848 48.45422108 357.82998848 49.77422108 357.82998848 51.13422108 C358.44744942 51.16000233 359.06491035 51.18578358 359.70108223 51.21234608 C369.72050962 51.88335796 376.62907455 55.18800185 383.82998848 62.13422108 C381.41001987 67.7364484 376.84728892 70.88552289 371.29092598 73.18500233 C366.73758878 74.63629258 362.64865141 75.51464183 357.82998848 75.13422108 C357.76811348 76.02109608 357.70623848 76.90797108 357.64248848 77.82172108 C356.61799417 81.99850559 355.20321137 83.51060327 351.82998848 86.13422108 C348.51748848 86.94672108 348.51748848 86.94672108 345.82998848 87.13422108 C345.89959785 87.82386951 345.96920723 88.51351795 346.04092598 89.22406483 C346.41608091 95.73568257 345.71942813 99.9378813 341.74405098 105.18500233 C337.95995383 109.03860331 333.59487608 111.91351162 328.13858223 112.34906483 C325.82998848 112.13422108 325.82998848 112.13422108 324.45498848 110.63422108 C322.75919297 108.76215364 322.75919297 108.76215364 319.26748848 108.82172108 C315.76730376 108.7701162 315.76730376 108.7701162 313.82998848 111.13422108 C314.15547301 113.60790352 314.70425849 115.7989411 315.57998848 118.13422108 C315.9609792 121.18214686 314.58792928 122.7251911 312.82998848 125.13422108 C310.28526112 126.40658476 308.51016542 126.26311537 305.65997696 126.26844215 C304.55770866 126.2729 303.45544035 126.27735784 302.31976998 126.28195077 C300.48829173 126.28167423 300.48829173 126.28167423 298.61981392 126.2813921 C297.33052479 126.28506879 296.04123565 126.28874547 294.71287715 126.29253358 C291.12221944 126.30257018 287.53157843 126.30627302 283.94090867 126.30892289 C280.07306661 126.31282096 276.20523784 126.32239954 272.33740425 126.33113575 C262.99146062 126.35091287 253.64551588 126.36096734 244.29955655 126.36986354 C239.90186162 126.37424386 235.5041679 126.37961128 231.10647392 126.38485241 C216.49402618 126.40186492 201.8815792 126.41636055 187.26912308 126.42360115 C183.47577221 126.42551114 179.68242135 126.42743146 175.88907051 126.42938709 C174.47478948 126.4301127 174.47478948 126.4301127 173.03193711 126.43085297 C157.74786055 126.43915872 142.46386213 126.4645047 127.17981972 126.49696777 C111.49968343 126.53000157 95.8195869 126.54804652 80.13941562 126.55124539 C71.33079108 126.55341376 62.52228051 126.56221021 53.7136898 126.58770657 C46.21419308 126.60936328 38.71483801 126.61748885 31.21531357 126.60773978 C27.38693964 126.60318056 23.55885827 126.60517469 19.73052406 126.62450123 C15.58485132 126.64524967 11.43983358 126.6351946 7.29413033 126.62196827 C5.46934424 126.63842214 5.46934424 126.63842214 3.60769379 126.65520841 C2.50020999 126.64662752 1.39272619 126.63804662 0.25168228 126.6292057 C-0.70564769 126.63018251 -1.66297765 126.63115932 -2.64931762 126.63216573 C-5.92514209 125.98505055 -7.1038166 124.7029195 -9.17001152 122.13422108 C-10.04501152 119.50922108 -10.04501152 119.50922108 -10.17001152 117.13422108 C-9.51001152 116.47422108 -8.85001152 115.81422108 -8.17001152 115.13422108 C-8.45984421 111.82738642 -8.45984421 111.82738642 -10.17001152 109.13422108 C-13.58625411 108.80067705 -13.58625411 108.80067705 -17.17001152 109.13422108 C-17.66501152 109.64984608 -18.16001152 110.16547108 -18.67001152 110.69672108 C-20.17001152 112.13422108 -20.17001152 112.13422108 -23.29501152 112.19672108 C-29.38271225 110.994691 -35.24577329 107.07791386 -38.73251152 101.94672108 C-41.03836781 97.31414101 -40.49774073 92.16850583 -40.17001152 87.13422108 C-41.03626152 87.11359608 -41.90251152 87.09297108 -42.79501152 87.07172108 C-47.34671722 85.80735838 -49.80122456 83.19139874 -52.17001152 79.13422108 C-52.17001152 77.81422108 -52.17001152 76.49422108 -52.17001152 75.13422108 C-52.78747246 75.10843983 -53.4049334 75.08265858 -54.04110527 75.05609608 C-64.06053266 74.3850842 -70.96909759 71.0804403 -78.17001152 64.13422108 C-75.75004291 58.53199375 -71.18731196 55.38291926 -65.63094902 53.08343983 C-61.07761182 51.63214957 -56.98867445 50.75380032 -52.17001152 51.13422108 C-52.14938652 50.26797108 -52.12876152 49.40172108 -52.10751152 48.50922108 C-50.84314883 43.95751537 -48.22718918 41.50300803 -44.17001152 39.13422108 C-42.85001152 39.13422108 -41.53001152 39.13422108 -40.17001152 39.13422108 C-40.22801933 38.43297108 -40.28602715 37.73172108 -40.34579277 37.00922108 C-40.62520527 31.13357528 -40.43047287 26.78086037 -36.92782402 21.92718983 C-33.02238104 17.94363798 -28.09081419 14.40203106 -22.44344902 13.88422108 C-20.17001152 14.13422108 -20.17001152 14.13422108 -18.79501152 15.63422108 C-17.09921601 17.50628851 -17.09921601 17.50628851 -13.60751152 17.44672108 C-10.1073268 17.49832595 -10.1073268 17.49832595 -8.17001152 15.13422108 C-8.49549605 12.66053864 -9.04428153 10.46950106 -9.92001152 8.13422108 C-10.30100224 5.0862953 -8.92795232 3.54325106 -7.17001152 1.13422108 C-4.62528416 -0.1381426 -2.85018846 0.00532679 0 0 Z M1.82998848 8.13422108 C1.49998848 11.43422108 1.16998848 14.73422108 0.82998848 18.13422108 C-0.96111221 22.3433077 -2.99559041 24.27892281 -7.17001152 26.13422108 C-13.04213498 27.36547277 -16.3837884 26.88100542 -22.17001152 25.13422108 C-25.68377246 25.21593645 -26.84486456 25.86041311 -29.54501152 28.13422108 C-31.84774567 32.38542258 -31.19642308 35.52749205 -30.17001152 40.13422108 C-29.56748142 42.15446906 -28.92680587 44.16655577 -28.17001152 46.13422108 C-28.83387871 46.17160389 -29.4977459 46.2089867 -30.18173027 46.24750233 C-37.37334554 46.51624156 -37.37334554 46.51624156 -43.17001152 50.13422108 C-43.57797914 53.50675337 -43.45529599 56.755185 -43.17001152 60.13422108 C-44.47325371 60.09941639 -44.47325371 60.09941639 -45.80282402 60.06390858 C-46.9552459 60.0458617 -48.10766777 60.02781483 -49.29501152 60.00922108 C-50.43196465 59.98601795 -51.56891777 59.96281483 -52.74032402 59.93890858 C-56.22758919 60.13749999 -58.92539772 60.88174098 -62.17001152 62.13422108 C-62.17001152 62.79422108 -62.17001152 63.45422108 -62.17001152 64.13422108 C-57.70666968 65.85715242 -54.06799921 66.35662899 -49.29501152 66.25922108 C-48.14258965 66.2411742 -46.99016777 66.22312733 -45.80282402 66.20453358 C-44.9339959 66.18133045 -44.06516777 66.15812733 -43.17001152 66.13422108 C-43.22801933 66.82129139 -43.28602715 67.5083617 -43.34579277 68.21625233 C-43.48114492 70.91942809 -43.49515763 73.44634658 -43.17001152 76.13422108 C-39.47114044 80.20297927 -33.38753896 79.84041856 -28.17001152 80.13422108 C-28.38657402 80.7142992 -28.60313652 81.29437733 -28.82626152 81.89203358 C-31.21644072 88.35818711 -31.21644072 88.35818711 -31.17001152 95.13422108 C-29.75465883 97.81976209 -28.52888144 99.03175006 -26.17001152 101.13422108 C-23.21044087 101.19762293 -23.21044087 101.19762293 -20.17001152 100.13422108 C-14.70420413 99.02081587 -10.30845317 98.91510372 -5.17001152 101.13422108 C1.47384188 106.7885644 0.87062962 108.54063247 1.82998848 118.13422108 C101.48998848 118.13422108 201.14998848 118.13422108 303.82998848 118.13422108 C304.15998848 114.83422108 304.48998848 111.53422108 304.82998848 108.13422108 C306.62108917 103.92513445 308.65556737 101.98951935 312.82998848 100.13422108 C318.70211194 98.90296938 322.04376536 99.38743674 327.82998848 101.13422108 C331.34374942 101.05250571 332.50484152 100.40802905 335.20498848 98.13422108 C337.50772263 93.88301958 336.85640003 90.7409501 335.82998848 86.13422108 C335.22745838 84.11397309 334.58678283 82.10188638 333.82998848 80.13422108 C334.49385567 80.09683826 335.15772285 80.05945545 335.84170723 80.02093983 C343.0333225 79.7522006 343.0333225 79.7522006 348.82998848 76.13422108 C349.2379561 72.76168878 349.11527295 69.51325716 348.82998848 66.13422108 C350.13323067 66.16902576 350.13323067 66.16902576 351.46280098 66.20453358 C352.61522285 66.22258045 353.76764473 66.24062733 354.95498848 66.25922108 C356.0919416 66.2824242 357.22889473 66.30562733 358.40030098 66.32953358 C361.88756615 66.13094217 364.58537468 65.38670118 367.82998848 64.13422108 C367.82998848 63.47422108 367.82998848 62.81422108 367.82998848 62.13422108 C363.36664664 60.41128973 359.72797617 59.91181316 354.95498848 60.00922108 C353.8025666 60.02726795 352.65014473 60.04531483 351.46280098 60.06390858 C350.59397285 60.0871117 349.72514473 60.11031483 348.82998848 60.13422108 C348.88799629 59.44715076 348.9460041 58.76008045 349.00576973 58.05218983 C349.14112188 55.34901406 349.15513459 52.82209557 348.82998848 50.13422108 C345.1311174 46.06546289 339.04751592 46.42802359 333.82998848 46.13422108 C334.15483223 45.26410389 334.15483223 45.26410389 334.48623848 44.37640858 C336.87641768 37.91025505 336.87641768 37.91025505 336.82998848 31.13422108 C335.41463579 28.44868007 334.1888584 27.23669209 331.82998848 25.13422108 C328.87041782 25.07081922 328.87041782 25.07081922 325.82998848 26.13422108 C320.36418109 27.24762629 315.96843013 27.35333844 310.82998848 25.13422108 C304.18613508 19.47987775 304.78934734 17.72780968 303.82998848 8.13422108 C204.16998848 8.13422108 104.50998848 8.13422108 1.82998848 8.13422108 Z " fill="#000000" transform="translate(103.17001152038574,-0.13422107696533203)"/>
</svg>
