<?xml version="1.0" encoding="UTF-8"?>
<svg version="1.1" xmlns="http://www.w3.org/2000/svg" width="512" height="512">
<path d="M0 0 C0.92425781 0.75925781 1.84851563 1.51851562 2.80078125 2.30078125 C3.65285156 2.98785156 4.50492187 3.67492187 5.3828125 4.3828125 C25.54537785 21.49717899 37.79041114 46.20139556 40.80078125 72.30078125 C42.91022603 99.58228423 36.29840436 126.06296673 23.80078125 150.30078125 C24.87457031 149.71167969 25.94835937 149.12257812 27.0546875 148.515625 C28.49037898 147.75555304 29.92660571 146.99649151 31.36328125 146.23828125 C32.06775391 145.84833984 32.77222656 145.45839844 33.49804688 145.05664062 C38.37020714 142.51952491 41.34828758 141.60862804 46.80078125 143.30078125 C51.00236418 145.309322 55.0186293 147.59891763 59.05078125 149.92578125 C60.24867945 150.6059981 61.44726106 151.28501268 62.64648438 151.96289062 C65.13482974 153.37069206 67.62016891 154.78359632 70.10351562 156.20019531 C75.80882059 159.44901844 81.55702731 162.62061656 87.30078125 165.80078125 C89.54314534 167.0465572 91.78533219 168.29265222 94.02734375 169.5390625 C99.76080191 172.72459377 105.49819483 175.9029779 111.23632812 179.08007812 C114.61289468 180.95339188 117.98450138 182.83538357 121.35546875 184.71875 C125.57032906 187.07195199 129.80413909 189.38330309 134.05859375 191.6640625 C135.97280007 192.70937209 137.88687027 193.754931 139.80078125 194.80078125 C140.67331543 195.25670654 141.54584961 195.71263184 142.44482422 196.18237305 C143.24291504 196.62363525 144.04100586 197.06489746 144.86328125 197.51953125 C145.55550781 197.89013672 146.24773437 198.26074219 146.9609375 198.64257812 C151.43593758 202.67577884 152.42409503 209.3569721 153.41867065 215.0533905 C153.55654688 215.80323993 153.69442311 216.55308935 153.8364774 217.32566148 C154.2932973 219.82144727 154.73818839 222.3192058 155.18310547 224.81713867 C155.50968923 226.61521221 155.83700964 228.41315209 156.16500854 230.21096802 C157.05281413 235.08904034 157.93027911 239.96892213 158.80589437 244.84919524 C159.7291349 249.98480011 160.66186165 255.11868166 161.59353638 260.25276184 C163.36147669 270.00339368 165.12082563 279.75555539 166.8771373 289.50828773 C168.85645161 300.49688106 170.8455364 311.48369813 172.83538032 322.47038877 C175.26958107 335.91192897 177.70137486 349.3539044 180.12741089 362.79692078 C180.29890541 363.74709656 180.47039994 364.69727235 180.64709127 365.67624134 C181.47512657 370.26590118 182.30163802 374.85582693 183.12502861 379.44632244 C183.43484478 381.17291327 183.74470972 382.89949534 184.05462646 384.62606812 C184.20331543 385.45444233 184.35200439 386.28281654 184.50519907 387.13629299 C185.32663144 391.70142935 186.16178456 396.2636684 187.01519239 400.82293552 C187.3855943 402.80325088 187.75212518 404.78428907 188.11853218 406.76534748 C188.54560433 409.07095888 188.97924348 411.37537066 189.42161369 413.67809582 C192.32320693 429.45450716 192.32320693 429.45450716 189.36328125 434.98828125 C185.44734457 436.99400491 182.02609615 436.15785875 177.80078125 435.30078125 C174.6733776 434.25705552 171.73193144 432.91306571 168.75390625 431.50390625 C167.9131102 431.11886932 167.07231415 430.7338324 166.20603943 430.33712769 C163.48206368 429.08669146 160.76661403 427.81879201 158.05078125 426.55078125 C156.15403143 425.67685459 154.25664549 424.8043073 152.35864258 423.93310547 C148.57798016 422.19660218 144.79994467 420.45458406 141.02392578 418.70800781 C134.20343863 415.5580451 127.34966796 412.48551071 120.48828125 409.42578125 C118.2029983 408.40392914 115.91784069 407.38179668 113.6328125 406.359375 C112.51986816 405.86163574 111.40692383 405.36389648 110.26025391 404.85107422 C105.95177522 402.9203163 101.64651982 400.98244626 97.34480286 399.03666687 C94.22983484 397.62956555 91.10995208 396.23716665 87.97387695 394.87768555 C82.70539418 392.57961943 77.61510923 390.28629925 72.70703125 387.28515625 C67.1376189 384.03180728 62.3987757 381.51364565 55.84570312 382.94726562 C48.66735748 385.39873008 42.02138948 388.89832341 35.34228516 392.45751953 C29.7183925 395.38461105 23.91862557 397.88386107 18.11328125 400.42578125 C15.69668827 401.50648641 13.28124557 402.58945512 10.8671875 403.67578125 C9.5769878 404.25521306 8.28678591 404.83463999 6.99658203 405.4140625 C1.45381762 407.90543094 -4.08596784 410.40341088 -9.62593079 412.90100098 C-16.46684787 415.98459785 -23.31116517 419.06057927 -30.1570282 422.13317871 C-34.52639903 424.09540929 -38.89111425 426.06725957 -43.24951172 428.05374146 C-46.10414033 429.35241835 -48.96469974 430.63791618 -51.82421875 431.92578125 C-53.30583496 432.60858154 -53.30583496 432.60858154 -54.81738281 433.30517578 C-55.7194043 433.70849121 -56.62142578 434.11180664 -57.55078125 434.52734375 C-58.31213379 434.87361816 -59.07348633 435.21989258 -59.85791016 435.57666016 C-66.15202338 437.52330665 -70.61535374 435.58307922 -76.26953125 432.92578125 C-77.05036072 432.57004532 -77.83119019 432.21430939 -78.63568115 431.84779358 C-81.20328782 430.67555597 -83.76353235 429.48804949 -86.32421875 428.30078125 C-88.13108678 427.47324643 -89.9385504 426.64701091 -91.74658203 425.82202148 C-94.5235644 424.55465371 -97.30012104 423.28642983 -100.07479858 422.01402283 C-107.99311965 418.3832647 -115.94678139 414.83681725 -123.91497803 411.31716919 C-134.51516627 406.63432322 -145.09365739 401.9062944 -155.64453125 397.11328125 C-156.60825653 396.67576035 -157.57198181 396.23823944 -158.56491089 395.78746033 C-163.29398916 393.63982404 -168.0211523 391.48811374 -172.74560547 389.33032227 C-174.45926113 388.5508368 -176.1729632 387.77145335 -177.88671875 386.9921875 C-178.67039825 386.63257935 -179.45407776 386.27297119 -180.26150513 385.90246582 C-180.98731781 385.57315063 -181.71313049 385.24383545 -182.4609375 384.90454102 C-183.08959717 384.61748795 -183.71825684 384.33043488 -184.3659668 384.03468323 C-188.39056278 382.42352501 -189.66111394 382.10261164 -193.9375 383.67749023 C-195.46768321 384.37208229 -196.99206742 385.07953365 -198.51171875 385.796875 C-199.33995148 386.17631256 -200.1681842 386.55575012 -201.02151489 386.94668579 C-203.75231148 388.20020513 -206.47551647 389.46943083 -209.19921875 390.73828125 C-211.10858391 391.61717036 -213.01858554 392.49467798 -214.92919922 393.37084961 C-217.85299406 394.71173254 -220.77642424 396.05334146 -223.69796753 397.39912415 C-233.25296396 401.79931321 -242.86289328 406.07011695 -252.48648071 410.31762695 C-260.42961631 413.82501165 -268.35723997 417.36046571 -276.24627686 420.98823547 C-279.9011018 422.66890479 -283.55984177 424.34097174 -287.21844482 426.01339722 C-288.97699003 426.82066589 -290.73344165 427.63251319 -292.48760986 428.44924927 C-294.93192112 429.58709594 -297.38302397 430.70896978 -299.8359375 431.828125 C-300.55004288 432.1658493 -301.26414825 432.50357361 -301.99989319 432.85153198 C-306.92270431 435.07303373 -311.75319307 436.3899259 -317.19921875 436.30078125 C-319.76171875 434.98828125 -319.76171875 434.98828125 -321.19921875 432.30078125 C-322.14747295 424.09649836 -320.2929233 415.91862163 -318.8034668 407.88916016 C-318.54470613 406.45809741 -318.28671758 405.02689487 -318.0294342 403.5955658 C-317.32996263 399.71682754 -316.61969969 395.84013602 -315.90745139 391.96372652 C-315.15089911 387.83563336 -314.40439015 383.70572364 -313.6566925 379.57601929 C-312.22835609 371.69564813 -310.79101332 363.81694737 -309.35046655 355.93880022 C-307.75532439 347.21271421 -306.17030903 338.48480011 -304.58618331 329.75670862 C-302.57878887 318.69721311 -300.56892829 307.63818018 -298.54684448 296.58135986 C-298.39516764 295.75198229 -298.2434908 294.92260472 -298.08721769 294.06809449 C-297.48138243 290.75571724 -296.87548747 287.44335093 -296.26942992 284.13101435 C-294.40386793 273.93270248 -292.55295626 263.73191989 -290.72246456 253.5272541 C-289.83219497 248.56417211 -288.9366748 243.60204251 -288.03968579 238.64017093 C-287.45050026 235.37877525 -286.86526515 232.11674698 -286.28552818 228.85365677 C-285.65855535 225.3260051 -285.02149451 221.80031666 -284.38208008 218.27490234 C-284.20363115 217.25484982 -284.02518223 216.23479729 -283.84132576 215.18383408 C-281.45568442 202.1838318 -281.45568442 202.1838318 -276.9921875 198.45898438 C-276.13238281 198.00458984 -275.27257812 197.55019531 -274.38671875 197.08203125 C-273.40783691 196.55037354 -272.42895508 196.01871582 -271.42041016 195.47094727 C-270.35741699 194.91979248 -269.29442383 194.3686377 -268.19921875 193.80078125 C-265.91519422 192.57062877 -263.6313459 191.34014905 -261.34765625 190.109375 C-260.15358289 189.47460347 -258.95924541 188.84032854 -257.76464844 188.20654297 C-252.07142659 185.17641711 -246.45393319 182.00924969 -240.82421875 178.86328125 C-238.55903146 177.60468065 -236.29340372 176.34687244 -234.02734375 175.08984375 C-232.90134766 174.4649707 -231.77535156 173.84009766 -230.61523438 173.19628906 C-227.19921875 171.30078125 -227.19921875 171.30078125 -223.78320312 169.40527344 C-221.50965935 168.14356726 -219.23630298 166.88152332 -216.96313477 165.61914062 C-214.71972442 164.37404061 -212.47543257 163.13052743 -210.23022461 161.88867188 C-205.10382822 159.04881281 -199.98945335 156.19243542 -194.91467285 153.26139832 C-193.18236922 152.26117486 -191.44691856 151.26640818 -189.71142578 150.27172852 C-187.54869334 149.03027753 -185.39174754 147.77867195 -183.24169922 146.51538086 C-182.27248535 145.96116455 -181.30327148 145.40694824 -180.3046875 144.8359375 C-179.46059326 144.34488525 -178.61649902 143.85383301 -177.74682617 143.34790039 C-173.95402201 141.78897973 -170.81279141 141.70610363 -166.95751953 143.12695312 C-165.93634033 143.6925293 -165.93634033 143.6925293 -164.89453125 144.26953125 C-164.146875 144.67558594 -163.39921875 145.08164063 -162.62890625 145.5 C-161.86835938 145.92925781 -161.1078125 146.35851562 -160.32421875 146.80078125 C-159.54046875 147.23003906 -158.75671875 147.65929687 -157.94921875 148.1015625 C-156.02608905 149.15693856 -154.11008623 150.22341112 -152.19921875 151.30078125 C-152.77929688 150.14964844 -153.359375 148.99851563 -153.95703125 147.8125 C-169.0147236 117.37412748 -176.45932009 82.89744604 -165.35351562 49.77880859 C-161.59781636 39.45462255 -156.88104406 30.06591331 -150.19921875 21.30078125 C-149.15121094 19.90472656 -149.15121094 19.90472656 -148.08203125 18.48046875 C-130.44007577 -4.05854198 -106.69249129 -16.40215339 -78.859375 -21.28515625 C-50.83106976 -24.45591437 -22.33394567 -17.60092407 0 0 Z M-92.01171875 56.86328125 C-92.73359375 57.66765625 -93.45546875 58.47203125 -94.19921875 59.30078125 C-94.87984375 60.02265625 -95.56046875 60.74453125 -96.26171875 61.48828125 C-101.67153873 69.34124573 -104.21263701 78.81907338 -103.19921875 88.30078125 C-100.0354754 101.98847915 -94.02990265 110.6130522 -82.19921875 118.30078125 C-73.04386531 123.34596538 -61.80372871 123.22129008 -51.9921875 120.3828125 C-41.91310294 116.47804827 -34.21399251 108.76993859 -29.19921875 99.30078125 C-25.33770634 89.33333947 -25.22076731 79.04654297 -28.88671875 68.98828125 C-33.49493413 58.85348727 -40.7550989 51.9144077 -51.01171875 47.42578125 C-66.34035488 42.49100906 -80.37496155 46.26090247 -92.01171875 56.86328125 Z " fill="#FDBB24" transform="translate(321.19921875,48.69921875)"/>
<path d="M0 0 C0.92425781 0.75925781 1.84851563 1.51851562 2.80078125 2.30078125 C3.65285156 2.98785156 4.50492188 3.67492187 5.3828125 4.3828125 C25.54537785 21.49717899 37.79041114 46.20139556 40.80078125 72.30078125 C44.12000951 115.22844463 25.16290945 152.93208327 -0.19921875 186.30078125 C-0.77760498 187.07421875 -0.77760498 187.07421875 -1.36767578 187.86328125 C-12.0382938 202.0963667 -24.44892336 214.61905187 -36.94921875 227.23828125 C-37.79983887 228.10203369 -38.65045898 228.96578613 -39.52685547 229.85571289 C-46.66230501 237.00010754 -54.20134021 244.53775133 -63.19921875 249.30078125 C-79.73602865 248.37089984 -103.5206924 216.82073091 -113.77050781 205.57714844 C-116.37546529 202.58273889 -118.78294526 199.4474492 -121.19921875 196.30078125 C-122.13038435 195.16619909 -123.06558603 194.03492232 -124.00390625 192.90625 C-131.5140111 183.82142627 -137.99727922 174.31492214 -144.19921875 164.30078125 C-145.00121197 163.02989104 -145.80329231 161.75905581 -146.60546875 160.48828125 C-165.40299007 130.35181518 -175.69079754 95.10530392 -168.17651367 59.64672852 C-164.83869558 45.69956603 -158.89769067 32.71132426 -150.19921875 21.30078125 C-149.50054687 20.37007812 -148.801875 19.439375 -148.08203125 18.48046875 C-130.44007577 -4.05854198 -106.69249129 -16.40215339 -78.859375 -21.28515625 C-50.83106976 -24.45591437 -22.33394567 -17.60092407 0 0 Z M-92.01171875 56.86328125 C-92.73359375 57.66765625 -93.45546875 58.47203125 -94.19921875 59.30078125 C-94.87984375 60.02265625 -95.56046875 60.74453125 -96.26171875 61.48828125 C-101.67153873 69.34124573 -104.21263701 78.81907338 -103.19921875 88.30078125 C-100.0354754 101.98847915 -94.02990265 110.6130522 -82.19921875 118.30078125 C-73.04386531 123.34596538 -61.80372871 123.22129008 -51.9921875 120.3828125 C-41.91310294 116.47804827 -34.21399251 108.76993859 -29.19921875 99.30078125 C-25.33770634 89.33333947 -25.22076731 79.04654297 -28.88671875 68.98828125 C-33.49493413 58.85348727 -40.7550989 51.9144077 -51.01171875 47.42578125 C-66.34035488 42.49100906 -80.37496155 46.26090247 -92.01171875 56.86328125 Z " fill="#FE4A49" transform="translate(321.19921875,48.69921875)"/>
<path d="M0 0 C1.7824707 1.11645508 1.7824707 1.11645508 3.42578125 2.51953125 C4.36127808 3.30215332 4.36127808 3.30215332 5.31567383 4.10058594 C5.97462646 4.66551758 6.6335791 5.23044922 7.3125 5.8125 C8.73740671 7.00391013 10.16455332 8.19264571 11.59375 9.37890625 C12.32207031 9.9836377 13.05039062 10.58836914 13.80078125 11.21142578 C17.22636724 13.99737637 20.76287979 16.62518179 24.3125 19.25 C26.28271263 20.72060181 28.25125757 22.1934054 30.21923828 23.66699219 C31.82060784 24.86571412 33.42385815 26.06192259 35.02734375 27.2578125 C42.78406202 33.28957907 48.82555125 40.42327122 55 48 C55.74765625 48.90621094 56.4953125 49.81242187 57.265625 50.74609375 C58.69223181 52.48179871 60.11398374 54.22150355 61.53125 55.96484375 C69.32024958 65.54087646 77.17057421 75.06505266 85.16748047 84.46826172 C88.72910195 88.66188996 92.21119517 92.91608422 95.68359375 97.18359375 C98.27787266 100.33785192 100.91606265 103.4520298 103.5625 106.5625 C107.43241802 111.11284316 111.19959897 115.72832835 114.91015625 120.41015625 C117.37185304 123.46081975 119.89813682 126.45144946 122.4375 129.4375 C126.50968486 134.22667258 130.52481607 139.05616963 134.49609375 143.9296875 C142.30601897 153.50628847 150.15850544 163.04514111 158.16088867 172.46166992 C161.77420777 176.71866805 165.33402804 181.01585199 168.84765625 185.35546875 C170.33718071 187.18561042 171.84642478 188.99981312 173.37109375 190.80078125 C174.11488281 191.69152344 174.85867188 192.58226562 175.625 193.5 C176.29789062 194.2940625 176.97078125 195.088125 177.6640625 195.90625 C178.10492188 196.5971875 178.54578125 197.288125 179 198 C178.67 198.99 178.34 199.98 178 201 C171.19546911 200.54568905 166.08915503 199.10660774 159.953125 196.203125 C159.11232895 195.81808807 158.2715329 195.43305115 157.40525818 195.03634644 C154.68128243 193.78591021 151.96583278 192.51801076 149.25 191.25 C147.35325018 190.37607334 145.45586424 189.50352605 143.55786133 188.63232422 C139.77719891 186.89582093 135.99916342 185.15380281 132.22314453 183.40722656 C125.40265738 180.25726385 118.54888671 177.18472946 111.6875 174.125 C109.40221705 173.10314789 107.11705944 172.08101543 104.83203125 171.05859375 C103.71908691 170.56085449 102.60614258 170.06311523 101.45947266 169.55029297 C97.15099397 167.61953505 92.84573857 165.68166501 88.54402161 163.73588562 C85.42905359 162.3287843 82.30917083 160.9363854 79.1730957 159.5769043 C73.90461293 157.27883818 68.81432798 154.985518 63.90625 151.984375 C58.33683765 148.73102603 53.59799445 146.2128644 47.04492188 147.64648438 C40.53945808 149.86815411 34.48470574 152.92980934 28.42784119 156.15934753 C22.35373062 159.3953481 16.10261572 162.16968908 9.8019104 164.93103027 C6.75704824 166.26853082 3.72255943 167.62867417 0.6875 168.98828125 C-0.44816406 169.49697754 -1.58382812 170.00567383 -2.75390625 170.52978516 C-5.74427997 171.88417975 -8.71833973 173.26781216 -11.6875 174.66796875 C-12.94228149 175.25143066 -12.94228149 175.25143066 -14.22241211 175.84667969 C-15.72937039 176.54914078 -17.23075785 177.26374443 -18.72485352 177.99316406 C-23.36652911 180.13911067 -23.36652911 180.13911067 -26.15234375 179.52734375 C-28.68411041 177.43448801 -30.84007439 175.08685476 -33 172.625 C-39.36478442 165.53692128 -46.09663879 158.84164613 -52.88085938 152.15673828 C-57.19858762 147.88232321 -61.34115498 143.55533948 -65.27856445 138.9284668 C-67.08946996 136.89976979 -69.01550541 135.06192853 -70.9921875 133.1953125 C-75.61344215 128.62740566 -78.80191628 123.42533834 -82.125 117.875 C-83.43789069 115.72860893 -84.75171343 113.58278772 -86.06640625 111.4375 C-86.7227002 110.35984375 -87.37899414 109.2821875 -88.05517578 108.171875 C-90.99990562 103.36922246 -94.02742772 98.62088963 -97.0625 93.875 C-98.2201359 92.05994929 -99.37768802 90.24484514 -100.53515625 88.4296875 C-101.10637207 87.53475586 -101.67758789 86.63982422 -102.26611328 85.71777344 C-105.18162557 81.14786598 -108.09050687 76.57374105 -111 72 C-114.54468543 66.42828921 -118.09047455 60.85729313 -121.640625 55.2890625 C-127.07213596 46.76791415 -132.4988227 38.24370375 -137.875 29.6875 C-138.29813477 29.01734863 -138.72126953 28.34719727 -139.15722656 27.65673828 C-142 23.11676862 -142 23.11676862 -142 22 C-128.43881979 22.53799623 -115.16128377 24.02020558 -101.72998047 25.91870117 C-85.76023172 28.15868243 -72.87051497 29.92142507 -57.9375 22.5 C-56.71970835 21.92221413 -55.50025026 21.34792976 -54.27929688 20.77685547 C-52.31957037 19.85994158 -50.36090868 18.94126748 -48.40634155 18.01339722 C-40.50163688 14.26228051 -32.50718396 10.71853509 -24.48928833 7.21704102 C-22.02898196 6.13771427 -19.5769195 5.04103445 -17.12475586 3.94335938 C-15.60441744 3.27640031 -14.08368403 2.61034067 -12.5625 1.9453125 C-11.87100357 1.63139557 -11.17950714 1.31747864 -10.46705627 0.99404907 C-6.59005384 -0.67497521 -4.02281277 -1.51036223 0 0 Z " fill="#4CE065" transform="translate(330,284)"/>
<path d="M0 0 C3.23028781 1.73588253 6.41165704 3.54109094 9.58789062 5.37402344 C10.78578882 6.05424029 11.98437044 6.73325487 13.18359375 7.41113281 C15.67193911 8.81893425 18.15727829 10.2318385 20.640625 11.6484375 C26.34592996 14.89726063 32.09413668 18.06885875 37.83789062 21.24902344 C40.08025471 22.49479938 42.32244157 23.74089441 44.56445312 24.98730469 C50.29791128 28.17283596 56.03530421 31.35122009 61.7734375 34.52832031 C65.15000405 36.40163407 68.52161075 38.28362575 71.89257812 40.16699219 C76.10743844 42.52019418 80.34124847 44.83154528 84.59570312 47.11230469 C86.50990945 48.15761427 88.42397965 49.20317318 90.33789062 50.24902344 C91.2104248 50.70494873 92.08295898 51.16087402 92.98193359 51.63061523 C94.17906982 52.29250854 94.17906982 52.29250854 95.40039062 52.96777344 C96.43873047 53.52368164 96.43873047 53.52368164 97.49804688 54.09082031 C101.97304696 58.12402102 102.96120441 64.80521428 103.95578003 70.50163269 C104.09365626 71.25148211 104.23153248 72.00133154 104.37358677 72.77390367 C104.83040668 75.26968946 105.27529776 77.76744799 105.72021484 80.26538086 C106.0467986 82.0634544 106.37411902 83.86139427 106.70211792 85.65921021 C107.5899235 90.53728252 108.46738848 95.41716432 109.34300375 100.29743743 C110.26624427 105.43304229 111.19897103 110.56692385 112.13064575 115.70100403 C113.89858607 125.45163587 115.65793501 135.20379757 117.41424668 144.95652992 C119.39356099 155.94512325 121.38264578 166.93194032 123.37248969 177.91863096 C125.80669045 191.36017116 128.23848423 204.80214659 130.66452026 218.24516296 C130.83601479 219.19533875 131.00750932 220.14551453 131.18420064 221.12448353 C132.01223595 225.71414337 132.8387474 230.30406912 133.66213799 234.89456463 C133.97195415 236.62115545 134.28181909 238.34773753 134.59173584 240.0743103 C134.7404248 240.90268451 134.88911376 241.73105872 135.04230845 242.58453518 C135.86374082 247.14967154 136.69889394 251.71191059 137.55230176 256.27117771 C137.92270368 258.25149307 138.28923456 260.23253126 138.65564156 262.21358967 C139.0827137 264.51920107 139.51635286 266.82361285 139.95872307 269.12633801 C142.3643143 282.20590976 142.3643143 282.20590976 141.33789062 287.74902344 C140.34789062 288.40902344 139.35789062 289.06902344 138.33789062 289.74902344 C132.0086011 282.41304488 125.72612093 275.05336512 119.61914062 267.53027344 C117.03946174 264.38518549 114.41157079 261.28422668 111.77539062 258.18652344 C107.90541576 253.63623025 104.13828973 249.02069266 100.42773438 244.33886719 C97.96603758 241.28820368 95.4397538 238.29757398 92.90039062 235.31152344 C88.82820577 230.52235086 84.81307455 225.6928538 80.84179688 220.81933594 C73.02997115 211.24040455 65.17816225 201.69672392 57.17041016 192.28076172 C53.60878868 188.08713347 50.12669546 183.83293922 46.65429688 179.56542969 C44.06001797 176.41117152 41.42182797 173.29699364 38.77539062 170.18652344 C34.90547261 165.63618028 31.13829165 161.02069508 27.42773438 156.33886719 C24.50928053 152.72216645 21.49724053 149.18806319 18.4855957 145.64892578 C14.76710454 141.27354639 11.12104645 136.84313062 7.50585938 132.38183594 C6.79042969 131.51300781 6.075 130.64417969 5.33789062 129.74902344 C4.89775635 129.19593506 4.45762207 128.64284668 4.00415039 128.07299805 C0.39935009 123.66579434 -3.47752947 120.35991979 -8.09960938 117.06152344 C-9.51909507 116.02322955 -10.93702577 114.98280694 -12.35351562 113.94042969 C-13.06910645 113.41465332 -13.78469727 112.88887695 -14.52197266 112.34716797 C-17.92233823 109.80794905 -21.23176692 107.16008268 -24.53710938 104.49902344 C-25.15763184 104.00354004 -25.7781543 103.50805664 -26.41748047 102.99755859 C-29.19570541 100.77185955 -31.92511351 98.52015759 -34.61132812 96.18261719 C-35.47371094 95.44140625 -36.33609375 94.70019531 -37.22460938 93.93652344 C-37.94777344 93.29070312 -38.6709375 92.64488281 -39.41601562 91.97949219 C-42.58743141 90.24210789 -44.15295438 90.92619235 -47.66210938 91.74902344 C-50.46573649 92.76649625 -53.17795028 93.96262103 -55.90039062 95.17871094 C-57.08603859 95.69862862 -57.08603859 95.69862862 -58.29563904 96.22904968 C-60.85809248 97.35447048 -63.41626651 98.48929384 -65.97460938 99.62402344 C-67.73439887 100.39806573 -69.49449165 101.17141884 -71.25488281 101.9440918 C-78.45680362 105.10861744 -85.64917234 108.29451911 -92.83439636 111.49676514 C-94.61777465 112.29130753 -96.40200944 113.08392663 -98.1862793 113.87646484 C-100.28918918 114.81197565 -102.38974342 115.75280527 -104.48754883 116.69970703 C-105.86559692 117.31386475 -105.86559692 117.31386475 -107.27148438 117.94042969 C-108.05491211 118.29306885 -108.83833984 118.64570801 -109.64550781 119.0090332 C-111.66210938 119.74902344 -111.66210938 119.74902344 -114.66210938 119.74902344 C-114.93493214 117.36637129 -115.13040835 115.01483336 -115.28710938 112.62402344 C-115.37089844 111.95886719 -115.4546875 111.29371094 -115.54101562 110.60839844 C-115.63867188 108.61621094 -115.63867188 108.61621094 -114.66210938 104.74902344 C-112.35260193 102.91804729 -109.96007509 101.62035713 -107.35400391 100.24658203 C-103.2494635 97.96313827 -100.12610282 94.89088069 -96.78710938 91.62402344 C-96.08021973 90.94533203 -95.37333008 90.26664062 -94.64501953 89.56738281 C-92.30383935 87.30805496 -89.98086981 85.03134888 -87.66210938 82.74902344 C-86.80037109 81.90243164 -85.93863281 81.05583984 -85.05078125 80.18359375 C-82.37275639 77.54549581 -79.702629 74.8997538 -77.03710938 72.24902344 C-76.20840332 71.42515137 -75.37969727 70.6012793 -74.52587891 69.75244141 C-62.73773175 57.93075755 -52.49263744 45.05374134 -43.03710938 31.31152344 C-42.4818457 30.5069873 -41.92658203 29.70245117 -41.35449219 28.87353516 C-38.8314495 25.16084416 -36.44352675 21.46461562 -34.36523438 17.48339844 C-28.07299867 5.50799441 -14.3384287 -6.73790431 0 0 Z " fill="#FDDA55" transform="translate(370.662109375,193.2509765625)"/>
<path d="M0 0 C3.84982675 3.58013661 6.62475147 7.28859546 9.3125 11.8125 C13.37103298 18.45939486 17.59753515 24.97113116 21.9375 31.4375 C29.28393841 42.40171955 36.55818279 53.41214487 43.8125 64.4375 C44.38733124 65.31099091 44.96216248 66.18448181 45.55441284 67.08444214 C48.51924864 71.58973046 51.48363987 76.09531101 54.44775391 80.60107422 C59.57241062 88.39058744 64.70124176 96.17735122 69.82989502 103.9642334 C72.60679909 108.18048368 75.3834844 112.39687803 78.16015625 116.61328125 C78.71233826 117.45176605 79.26452026 118.29025085 79.83343506 119.15414429 C83.44006546 124.6308914 87.04629983 130.10789912 90.65231323 135.58505249 C93.14654024 139.37349042 95.64089217 143.16184609 98.13525391 146.95019531 C99.32525788 148.75760855 100.5152005 150.56506217 101.70507812 152.37255859 C103.35401175 154.87738068 105.00315595 157.38206401 106.65234375 159.88671875 C107.13650253 160.62230515 107.62066132 161.35789154 108.11949158 162.11576843 C108.57368973 162.80548233 109.02788788 163.49519623 109.49584961 164.20581055 C109.92004181 164.8518927 110.34423401 165.49797485 110.78128052 166.16363525 C111.578452 167.36481209 112.38626116 168.55901358 113.20578003 169.74505615 C115.43433382 172.97949918 116.49116321 174.89580697 116.25 178.875 C116.21390625 179.65617188 116.1778125 180.43734375 116.140625 181.2421875 C116.09421875 181.82226562 116.0478125 182.40234375 116 183 C111.69742118 182.3443641 107.97736915 180.81850801 104.04296875 179.03515625 C103.36003754 178.73051453 102.67710632 178.4258728 101.97348022 178.11199951 C99.70924569 177.10042612 97.44839504 176.08151282 95.1875 175.0625 C93.58539237 174.34487794 91.9830936 173.62768247 90.38061523 172.91088867 C86.12093541 171.00374444 81.86427123 169.08996584 77.60852051 167.17407227 C75.02559944 166.01152208 72.44210451 164.85025752 69.85839844 163.68945312 C61.40748865 159.89249386 52.95859149 156.09108785 44.51171875 152.28515625 C36.57302519 148.70823755 28.6340724 145.13191423 20.69064331 141.56552124 C18.96206808 140.78910783 17.23407029 140.0114092 15.50610352 139.23364258 C13.39628451 138.28677421 11.27672696 137.36127155 9.14746094 136.45898438 C6 135 6 135 2.82910156 132.99414062 C-1.62780358 130.4230004 -5.20452497 128.42956545 -10.3442688 129.47836304 C-15.91351189 131.32537131 -21.10438773 133.95181513 -26.31072998 136.63446045 C-30.4603936 138.7415489 -34.71734363 140.59127835 -38.97265625 142.47265625 C-40.6334435 143.22435496 -42.29318567 143.97836669 -43.9519043 144.73461914 C-49.32712886 147.18340689 -54.70588836 149.62433141 -60.0859375 152.0625 C-61.00140854 152.47746231 -61.91687958 152.89242462 -62.86009216 153.31996155 C-75.55683789 159.07016845 -88.29193772 164.73377432 -101.04307556 170.36219788 C-105.41641683 172.29400885 -109.77874314 174.24861284 -114.13671875 176.21484375 C-116.21602681 177.14349571 -118.29544469 178.07190185 -120.375 179 C-121.28403076 179.41580322 -122.19306152 179.83160645 -123.12963867 180.26000977 C-127.5568462 182.2197904 -131.05288064 183.65253415 -136 183 C-138.375 181.625 -138.375 181.625 -140 179 C-140.67376013 172.14621793 -139.68692821 165.24239453 -138.71606445 158.46411133 C-138.5773291 157.46262054 -138.43859375 156.46112976 -138.2956543 155.42929077 C-137.00045164 146.23054592 -135.55875556 137.05430141 -134.07067585 127.88496876 C-133.07645523 121.74558836 -132.13257838 115.60742006 -131.30541992 109.44311523 C-125.53377935 66.79690797 -125.53377935 66.79690797 -116.05624866 58.87050533 C-109.73860062 54.41974319 -102.83347243 52.03716327 -95.41326904 50.03388977 C-90.21060773 48.45798754 -85.77004619 45.83109124 -81.125 43.0625 C-72.34423723 38.18941084 -63.43432125 33.58247696 -54.5 29 C-43.55881719 23.38757354 -32.71011362 17.63846075 -21.9375 11.70703125 C-14.67532186 7.71025193 -7.33854894 3.85419812 0 0 Z " fill="#A7EDFA" transform="translate(140,302)"/>
<path d="M0 0 C16.47846765 8.36319422 16.47846765 8.36319422 20.85351562 16.30078125 C22.43599278 18.89761001 24.05399851 21.47221527 25.66601562 24.05078125 C26.31594482 25.1018103 26.31594482 25.1018103 26.97900391 26.17407227 C30.91496797 32.50720983 35.22567094 38.45200439 39.85351562 44.30078125 C40.34223145 44.91953125 40.83094727 45.53828125 41.33447266 46.17578125 C47.77018448 54.29425234 54.39487976 62.15221753 61.46289062 69.7265625 C64.35657235 72.84247141 67.11713576 76.0467079 69.85351562 79.30078125 C54.56916904 78.673842 39.57527206 76.5705384 24.54101562 73.80078125 C17.40347139 72.49208587 10.23705595 71.48214083 3.04101562 70.55078125 C1.47323364 70.34098633 1.47323364 70.34098633 -0.1262207 70.12695312 C-1.59998169 69.94229492 -1.59998169 69.94229492 -3.10351562 69.75390625 C-3.97983643 69.64208008 -4.85615723 69.53025391 -5.7590332 69.41503906 C-11.06068125 69.16131462 -15.26548463 71.75430044 -19.85742188 74.1328125 C-20.61295349 74.52035706 -21.36848511 74.90790161 -22.14691162 75.30718994 C-24.60746753 76.57135127 -27.06459278 77.84201485 -29.52148438 79.11328125 C-31.22702517 79.99215582 -32.9325917 80.87098046 -34.63818359 81.74975586 C-44.07235518 86.6204629 -53.44585963 91.58119601 -62.7331543 96.72729492 C-72.84328654 102.29657416 -83.13811645 107.51094536 -93.41210938 112.76928711 C-94.89780889 113.52974133 -96.38348633 114.29023869 -97.86914062 115.05078125 C-98.94858444 115.60331322 -98.94858444 115.60331322 -100.04983521 116.16700745 C-106.7587994 119.60568107 -113.43340126 123.10804338 -120.08276367 126.66064453 C-125.04534185 129.30078125 -125.04534185 129.30078125 -126.14648438 129.30078125 C-125.519174 121.62562471 -124.33599894 114.1137763 -122.96679688 106.5390625 C-122.75336639 105.34903122 -122.53993591 104.15899994 -122.32003784 102.9329071 C-121.86990817 100.43235196 -121.41765415 97.93217839 -120.96337891 95.43237305 C-120.27197137 91.61596936 -119.59375562 87.79736702 -118.91601562 83.97851562 C-118.47541517 81.54021884 -118.03403555 79.10206269 -117.59179688 76.6640625 C-117.39167999 75.52850418 -117.19156311 74.39294586 -116.98538208 73.22297668 C-114.39925287 59.18074646 -114.39925287 59.18074646 -109.93945312 55.45898438 C-109.07964844 55.00458984 -108.21984375 54.55019531 -107.33398438 54.08203125 C-106.35510254 53.55037354 -105.3762207 53.01871582 -104.36767578 52.47094727 C-103.30468262 51.91979248 -102.24168945 51.3686377 -101.14648438 50.80078125 C-98.86245984 49.57062877 -96.57861153 48.34014905 -94.29492188 47.109375 C-93.10084852 46.47460347 -91.90651104 45.84032854 -90.71191406 45.20654297 C-85.01869222 42.17641711 -79.40119882 39.00924969 -73.77148438 35.86328125 C-71.50629709 34.60468065 -69.24066935 33.34687244 -66.97460938 32.08984375 C-65.84861328 31.4649707 -64.72261719 30.84009766 -63.5625 30.19628906 C-60.14648438 28.30078125 -60.14648438 28.30078125 -56.73046875 26.40527344 C-54.45692497 25.14356726 -52.1835686 23.88152332 -49.91040039 22.61914062 C-47.66699004 21.37404061 -45.4226982 20.13052743 -43.17749023 18.88867188 C-38.05109384 16.04881281 -32.93671897 13.19243542 -27.86193848 10.26139832 C-26.12963484 9.26117486 -24.39418419 8.26640818 -22.65869141 7.27172852 C-20.49595896 6.03027753 -18.33901317 4.77867195 -16.18896484 3.51538086 C-15.21975098 2.96116455 -14.25053711 2.40694824 -13.25195312 1.8359375 C-12.40785889 1.34488525 -11.56376465 0.85383301 -10.6940918 0.34790039 C-6.97327963 -1.18143007 -3.82622853 -1.24639655 0 0 Z " fill="#4CE065" transform="translate(154.146484375,191.69921875)"/>
<path d="M0 0 C1.051875 0.474375 2.10375 0.94875 3.1875 1.4375 C10.19285989 7.82016123 10.27727652 21.240247 11.91088867 30.30615234 C12.18678933 31.81695754 12.46310219 33.3276875 12.73979187 34.83834839 C13.48374864 38.90734321 14.22166651 42.97741085 14.9581964 47.04775572 C15.73196765 51.31937426 16.51056664 55.59011325 17.28840637 59.86099243 C18.5921215 67.02373017 19.89183531 74.18718534 21.18920898 81.35107422 C22.68840898 89.62909866 24.19426562 97.90589163 25.70358866 106.18207586 C27.15832769 114.1599568 28.60810798 122.13873139 30.05571938 130.11790848 C30.67087652 133.50804433 31.28781706 136.89784841 31.90620995 140.28739548 C32.63335012 144.27416892 33.35616094 148.26170354 34.07563972 152.24986649 C34.34018209 153.71225563 34.60621904 155.17437532 34.87386322 156.63619995 C35.2390479 158.63216319 35.59827286 160.62921409 35.9571991 162.62631226 C36.15978427 163.74306524 36.36236944 164.85981823 36.57109356 166.01041222 C36.96097971 168.7280186 37.08495407 171.26055854 37 174 C29.25340727 166.33581783 22.12087206 158.22727804 15.28125 149.75 C12.93281032 146.91900422 10.49090098 144.20616402 8 141.5 C3.88621091 137.0301488 0.02912703 132.40955107 -3.78515625 127.68359375 C-5.95632827 125.05291443 -8.20241357 122.52057576 -10.5 120 C-13.59555196 116.60401318 -16.55151207 113.13828469 -19.4375 109.5625 C-23.29825137 104.788597 -27.37437075 100.26611572 -31.53125 95.75 C-34.72881296 92.18815771 -37.71388343 88.47434167 -40.71875 84.75 C-43.06718968 81.91900422 -45.50909902 79.20616402 -48 76.5 C-52.09351091 72.05272888 -55.92442499 67.45282537 -59.71875 62.75 C-62.06718968 59.91900422 -64.50909902 57.20616402 -67 54.5 C-71.11009489 50.03416274 -74.96490588 45.41896833 -78.7734375 40.6953125 C-81.00561174 37.99320684 -83.32263337 35.39882571 -85.6875 32.8125 C-96 21.46875 -96 21.46875 -96 18 C-88.46740573 16.27889708 -80.93006479 14.57963579 -73.39024353 12.89054871 C-68.20322627 11.72629784 -63.01956193 10.54818051 -57.83789062 9.36035156 C-51.89230845 7.99759062 -45.94431003 6.64611824 -39.99352741 5.30625057 C-36.62884243 4.54812553 -33.26569475 3.78420995 -29.90536499 3.00698853 C-26.07490366 2.12128398 -22.23895556 1.26103454 -18.40234375 0.40234375 C-17.24095886 0.12983795 -16.07957397 -0.14266785 -14.88299561 -0.4234314 C-5.0556828 -2.58614291 -5.0556828 -2.58614291 0 0 Z " fill="#1FA4E7" transform="translate(465,246)"/>
<path d="M0 0 C3.49156192 3.17700679 5.84413153 6.73650724 8.25 10.75 C12.33513964 17.41313295 16.58323852 23.94735514 20.9375 30.4375 C28.28373555 41.40185716 35.55818131 52.4121426 42.8125 63.4375 C43.38733124 64.31099091 43.96216248 65.18448181 44.55441284 66.08444214 C47.51924864 70.58973046 50.48363987 75.09531101 53.44775391 79.60107422 C58.57241062 87.39058744 63.70124176 95.17735122 68.82989502 102.9642334 C71.60679909 107.18048368 74.3834844 111.39687803 77.16015625 115.61328125 C77.71233826 116.45176605 78.26452026 117.29025085 78.83343506 118.15414429 C82.44006546 123.6308914 86.04629983 129.10789912 89.65231323 134.58505249 C92.14654024 138.37349042 94.64089217 142.16184609 97.13525391 145.95019531 C98.32525788 147.75760855 99.5152005 149.56506217 100.70507812 151.37255859 C102.35401175 153.87738068 104.00315595 156.38206401 105.65234375 158.88671875 C106.13650253 159.62230515 106.62066132 160.35789154 107.11949158 161.11576843 C107.57368973 161.80548233 108.02788788 162.49519623 108.49584961 163.20581055 C108.92004181 163.8518927 109.34423401 164.49797485 109.78128052 165.16363525 C110.578452 166.36481209 111.38626116 167.55901358 112.20578003 168.74505615 C114.43433382 171.97949918 115.49116321 173.89580697 115.25 177.875 C115.21390625 178.65617188 115.1778125 179.43734375 115.140625 180.2421875 C115.09421875 180.82226562 115.0478125 181.40234375 115 182 C110.69742118 181.3443641 106.97736915 179.81850801 103.04296875 178.03515625 C102.36003754 177.73051453 101.67710632 177.4258728 100.97348022 177.11199951 C98.70924569 176.10042612 96.44839504 175.08151282 94.1875 174.0625 C92.58539237 173.34487794 90.9830936 172.62768247 89.38061523 171.91088867 C85.12093541 170.00374444 80.86427123 168.08996584 76.60852051 166.17407227 C74.02559944 165.01152208 71.44210451 163.85025752 68.85839844 162.68945312 C60.40592532 158.89176372 51.95573371 155.08905378 43.5078125 151.28125 C37.52703723 148.58566621 31.54337014 145.89672188 25.5546875 143.21875 C24.57585098 142.78101761 24.57585098 142.78101761 23.57723999 142.33444214 C22.30835337 141.76704075 21.03946309 141.19964754 19.77056885 140.63226318 C9.8044108 136.17531687 -0.12990618 131.66586051 -10 127 C-9.33157968 111.94231905 -8.32119642 96.92372771 -7.1875 81.89453125 C-7.01187755 79.54897184 -6.83634207 77.20340592 -6.66088867 74.85783386 C-6.2961884 69.99110768 -5.92949756 65.12453633 -5.56152344 60.25805664 C-5.08926393 54.00837951 -4.62360159 47.75822914 -4.15953064 41.50793934 C-3.80065917 36.68751856 -3.43763519 31.86741731 -3.07339478 27.04739952 C-2.89968737 24.74010866 -2.72746262 22.43270569 -2.55673218 20.12519264 C-2.31950524 16.92532 -2.0765338 13.72593507 -1.83203125 10.52661133 C-1.72757187 9.09236816 -1.72757187 9.09236816 -1.6210022 7.62915039 C-1.55375946 6.76477859 -1.48651672 5.9004068 -1.41723633 5.00984192 C-1.36046219 4.25505963 -1.30368805 3.50027735 -1.24519348 2.72262287 C-1 1 -1 1 0 0 Z " fill="#1FA4E7" transform="translate(141,303)"/>
<path d="M0 0 C0.92248535 0.00555908 1.8449707 0.01111816 2.79541016 0.0168457 C4.21587646 0.02421753 4.21587646 0.02421753 5.66503906 0.03173828 C29.78968476 0.42832452 52.55189673 9.03463942 71.17041016 24.3293457 C72.02248047 25.01641602 72.87455078 25.70348633 73.75244141 26.41137695 C93.91500676 43.52574345 106.16004005 68.22996001 109.17041016 94.3293457 C112.48963841 137.25700909 93.53253836 174.96064773 68.17041016 208.3293457 C67.59202393 209.1027832 67.59202393 209.1027832 67.00195312 209.8918457 C56.33133511 224.12493116 43.92070555 236.64761633 31.42041016 249.2668457 C30.56979004 250.13059814 29.71916992 250.99435059 28.84277344 251.88427734 C21.70219607 259.03380625 14.16607391 266.54966412 5.17041016 271.3293457 C1.02692351 271.16180192 -1.4358168 269.47469963 -4.64208984 266.9543457 C-5.43228516 266.34848633 -6.22248047 265.74262695 -7.03662109 265.1184082 C-7.62830078 264.52801758 -8.21998047 263.93762695 -8.82958984 263.3293457 C-8.82958984 260.3293457 -8.82958984 260.3293457 -7.4753418 258.72631836 C-6.84587646 258.15445801 -6.21641113 257.58259766 -5.56787109 256.9934082 C-4.86726562 256.34782959 -4.16666016 255.70225098 -3.44482422 255.03710938 C-2.68492187 254.34979736 -1.92501953 253.66248535 -1.14208984 252.9543457 C0.42566975 251.5065911 1.99206161 250.05735409 3.55712891 248.60668945 C4.33878418 247.88465332 5.12043945 247.16261719 5.92578125 246.41870117 C13.8241931 239.0666663 21.31304065 231.51380026 28.01416016 223.0402832 C30.22647363 220.25886011 32.53649478 217.58257717 34.85791016 214.8918457 C64.84096678 178.77272168 83.55269743 137.09971827 79.96826172 89.65356445 C77.14646518 64.99212755 62.42271503 41.43269801 43.88916016 25.45043945 C28.68591778 13.58928915 10.4584258 4.64689797 -8.82958984 2.3293457 C-5.99808298 -0.50216116 -3.87373742 0.04250865 0 0 Z " fill="#E7343F" transform="translate(252.82958984375,26.670654296875)"/>
<path d="M0 0 C2.75566177 2.72830307 5.47585989 5.45169994 8.015625 8.3828125 C8.80211426 9.28918457 8.80211426 9.28918457 9.60449219 10.21386719 C10.41901855 11.15987793 10.41901855 11.15987793 11.25 12.125 C11.82137695 12.78661133 12.39275391 13.44822266 12.98144531 14.12988281 C17.75314349 19.67406501 22.40344865 25.30984535 27 31 C32.23703825 37.44703987 37.53542909 43.83426836 42.91357422 50.16357422 C46.55836708 54.45972273 50.12772864 58.8135055 53.68359375 63.18359375 C56.27787266 66.33785192 58.91606265 69.4520298 61.5625 72.5625 C65.43241802 77.11284316 69.19959897 81.72832835 72.91015625 86.41015625 C75.37185304 89.46081975 77.89813682 92.45144946 80.4375 95.4375 C84.50968486 100.22667258 88.52481607 105.05616963 92.49609375 109.9296875 C100.30601897 119.50628847 108.15850544 129.04514111 116.16088867 138.46166992 C119.77420777 142.71866805 123.33402804 147.01585199 126.84765625 151.35546875 C128.33718071 153.18561042 129.84642478 154.99981312 131.37109375 156.80078125 C132.11488281 157.69152344 132.85867188 158.58226562 133.625 159.5 C134.29789063 160.2940625 134.97078125 161.088125 135.6640625 161.90625 C136.10492188 162.5971875 136.54578125 163.288125 137 164 C136.67 164.99 136.34 165.98 136 167 C129.19546911 166.54568905 124.08915503 165.10660774 117.953125 162.203125 C117.11232895 161.81808807 116.2715329 161.43305115 115.40525818 161.03634644 C112.68128243 159.78591021 109.96583278 158.51801076 107.25 157.25 C105.35325018 156.37607334 103.45586424 155.50352605 101.55786133 154.63232422 C97.77719891 152.89582093 93.99916342 151.15380281 90.22314453 149.40722656 C83.40265381 146.2572622 76.54880945 143.18490986 69.6875 140.125 C67.40354495 139.10309002 65.11968972 138.08095693 62.8359375 137.05859375 C61.1667627 136.31198486 61.1667627 136.31198486 59.46386719 135.55029297 C55.77970395 133.90140401 52.09670542 132.24993695 48.4140625 130.59765625 C47.12931386 130.02132003 45.84456452 129.44498539 44.55981445 128.86865234 C42.17804614 127.80017911 39.79638661 126.73146463 37.41479492 125.66259766 C27.95311648 121.41936306 18.47758323 117.20756701 9 113 C5.65206142 75.35325233 2.62531053 37.70456947 0 0 Z " fill="#44C767" transform="translate(372,318)"/>
<path d="M0 0 C3.9445975 3.14326295 7.18368489 6.19840804 10.3125 10.1875 C13.27681702 13.89662029 16.29683973 17.49497123 19.5 21 C22.59555196 24.39598682 25.55151207 27.86171531 28.4375 31.4375 C32.29825137 36.211403 36.37437075 40.73388428 40.53125 45.25 C43.72881296 48.81184229 46.71388343 52.52565833 49.71875 56.25 C52.06718968 59.08099578 54.50909902 61.79383598 57 64.5 C61.09351091 68.94727112 64.92442499 73.54717463 68.71875 78.25 C71.06718968 81.08099578 73.50909902 83.79383598 76 86.5 C80.11378909 90.9698512 83.97087297 95.59044893 87.78515625 100.31640625 C89.95632827 102.94708557 92.20241357 105.47942424 94.5 108 C97.59555196 111.39598682 100.55151207 114.86171531 103.4375 118.4375 C106.51336588 122.24087503 109.68753166 125.90082652 113 129.5 C117.0793106 133.9334833 120.93342159 138.49745647 124.69921875 143.19921875 C126.81369707 145.87721659 126.81369707 145.87721659 128.66268921 147.62388611 C134.04328402 153.07969256 135.47905176 157.9141498 136.65234375 165.3671875 C136.84220352 166.44195343 137.03206329 167.51671936 137.22767639 168.62405396 C137.62220287 170.88603315 138.00387308 173.15028869 138.37329102 175.41650391 C138.93544853 178.86242487 139.53529734 182.30005454 140.14257812 185.73828125 C140.5230514 187.94753582 140.90137822 190.15716135 141.27734375 192.3671875 C141.45224838 193.38416718 141.62715302 194.40114685 141.80735779 195.44894409 C143.94984352 208.69679927 143.94984352 208.69679927 143 214 C142.01 214.66 141.02 215.32 140 216 C133.67071047 208.66402144 127.38823031 201.30434168 121.28125 193.78125 C118.70157112 190.63616205 116.07368017 187.53520324 113.4375 184.4375 C109.56752514 179.88720681 105.80039911 175.27166922 102.08984375 170.58984375 C99.62814696 167.53918025 97.10186318 164.54855054 94.5625 161.5625 C90.49031514 156.77332742 86.47518393 151.94383037 82.50390625 147.0703125 C74.69208052 137.49138111 66.84027163 127.94770048 58.83251953 118.53173828 C55.27089805 114.33811004 51.78880483 110.08391578 48.31640625 105.81640625 C45.72212734 102.66214808 43.08393735 99.5479702 40.4375 96.4375 C36.56758198 91.88715684 32.80040103 87.27167165 29.08984375 82.58984375 C26.1726812 78.97474325 23.16159723 75.44255338 20.15209961 71.90429688 C15.69696322 66.660222 11.328892 61.34896754 7 56 C6.28070313 55.2678125 5.56140625 54.535625 4.8203125 53.78125 C2.22275178 49.81244477 2.12524933 46.15813556 1.8125 41.5 C1.73918457 40.60361816 1.66586914 39.70723633 1.59033203 38.78369141 C1.44589039 36.99602501 1.30866582 35.20775859 1.17919922 33.41894531 C1.03115273 31.42051941 0.8500414 29.42457283 0.66015625 27.4296875 C-0.19277978 18.29275633 -0.09259026 9.1664362 0 0 Z " fill="#FCBB25" transform="translate(369,267)"/>
<path d="M0 0 C-0.23077069 5.99396514 -0.51866581 11.98153701 -0.85107422 17.97070312 C-0.99674108 20.93371028 -1.08077894 23.89395858 -1.16015625 26.859375 C-1.25014476 28.71887065 -1.34251044 30.57825311 -1.4375 32.4375 C-1.44507324 33.30592529 -1.45264648 34.17435059 -1.46044922 35.0690918 C-1.70053793 38.78973703 -2.01692957 41.10719827 -4.84521484 43.67578125 C-7.49397856 45.31011332 -10.19046146 46.66064529 -13 48 C-15.18358865 49.14596956 -17.36581198 50.29454331 -19.546875 51.4453125 C-21.32627935 52.35671774 -23.10572724 53.268045 -24.887146 54.17550659 C-34.28860374 58.96741306 -43.6383377 63.83358432 -52.875 68.9375 C-62.32524194 74.15345025 -71.90019484 79.10490032 -81.50506592 84.02764893 C-91.13348913 88.96470441 -100.68598188 94.01460537 -110.13867188 99.28320312 C-114.67802282 101.80024975 -119.18694623 104.05278335 -124 106 C-123.38828446 97.38026646 -122.22983079 88.86289532 -120.80053711 80.34570312 C-120.55711755 78.85670224 -120.32776554 77.3653379 -120.11206055 75.87207031 C-118.34183196 63.67332003 -118.34183196 63.67332003 -115.51464844 60.14770508 C-113.41364868 58.77877772 -111.33337486 57.92296657 -109 57 C-107.34457115 56.14278076 -105.6897692 55.28416861 -104.04478455 54.40707397 C-102.17126723 53.41253516 -100.28619197 52.44438013 -98.39550781 51.48291016 C-87.93888542 46.16460528 -77.51287931 40.81053877 -67.25 35.125 C-56.97653163 29.44214153 -46.53331684 24.10593238 -36.07977295 18.76477051 C-26.10319883 13.66493629 -16.19024096 8.48355003 -6.41943359 2.99584961 C-1.08350653 0 -1.08350653 0 0 0 Z " fill="#FDDB56" transform="translate(144,260)"/>
<path d="M0 0 C12.73867702 0.51469402 25.24715819 1.77556861 37.875 3.5 C40.41212905 3.84207935 42.94950572 4.18207642 45.48733521 4.5189209 C47.04399569 4.72595435 48.60026037 4.93600191 50.15597534 5.15002441 C56.44306352 5.99318002 62.65005889 6.47083824 69 7 C68.67 40 68.34 73 68 107 C65.41054515 103.76318143 63.15171754 100.82355278 60.96875 97.3671875 C60.411875 96.48869141 59.855 95.61019531 59.28125 94.70507812 C58.6934375 93.77115234 58.105625 92.83722656 57.5 91.875 C56.571875 90.40836914 56.571875 90.40836914 55.625 88.91210938 C53.74708598 85.94323506 51.87315835 82.9718765 50 80 C48.9689397 78.3670677 47.93770264 76.734247 46.90625 75.1015625 C45.44919259 72.79483872 43.99239886 70.48795154 42.53662109 68.18041992 C38.74636869 62.17408749 34.93904987 56.17874547 31.125 50.1875 C30.54266602 49.27274902 29.96033203 48.35799805 29.36035156 47.41552734 C26.35887555 42.70187198 23.35570562 37.98929964 20.3515625 33.27734375 C14.92289415 24.75995031 9.49867979 16.23972895 4.125 7.6875 C3.70186523 7.01734863 3.27873047 6.34719727 2.84277344 5.65673828 C0 1.11676862 0 1.11676862 0 0 Z " fill="#45C767" transform="translate(188,306)"/>
<path d="M0 0 C11.97185767 3.64440112 20.76015177 9.0802656 27 20 C28.56360097 22.59557762 30.15481947 25.17373592 31.75 27.75 C32.17112061 28.43408936 32.59224121 29.11817871 33.02612305 29.82299805 C37.13091831 36.39823619 41.79380186 42.42721935 46.70361328 48.41552734 C47.9172247 49.89883019 49.11357526 51.39620858 50.30859375 52.89453125 C55.13303485 58.90573326 60.23127296 64.60216201 65.46875 70.25 C68.39882253 73.43328868 71.21583204 76.68909757 74 80 C58.03727753 79.34523486 42.39204069 77.05140411 26.69946289 74.12988281 C19.09689114 72.75855847 11.42893071 71.88440204 3.7565918 71.00195312 C2.7644165 70.88529297 1.77224121 70.76863281 0.75 70.6484375 C-0.58804688 70.49640869 -0.58804688 70.49640869 -1.953125 70.34130859 C-4 70 -4 70 -5 69 C-5.42680752 60.57425123 -4.84591936 52.14567577 -4.16015625 43.75 C-4.07374374 42.64825439 -3.98733124 41.54650879 -3.89830017 40.41137695 C-3.7166099 38.10885665 -3.53247099 35.80652832 -3.34594727 33.50439453 C-3.06098427 29.98126036 -2.78480459 26.45751517 -2.50976562 22.93359375 C-2.33124238 20.68485503 -2.15222373 18.43615557 -1.97265625 16.1875 C-1.89032242 15.13852539 -1.80798859 14.08955078 -1.72315979 13.00878906 C-1.64315231 12.03006836 -1.56314484 11.05134766 -1.48071289 10.04296875 C-1.41187393 9.18727295 -1.34303497 8.33157715 -1.27210999 7.44995117 C-0.99167387 4.92503545 -0.5340093 2.4825997 0 0 Z " fill="#45C767" transform="translate(150,191)"/>
<path d="M0 0 C0.90999756 0.52247314 1.81999512 1.04494629 2.75756836 1.58325195 C3.72573486 2.1474585 4.69390137 2.71166504 5.69140625 3.29296875 C7.74263619 4.47153861 9.79474429 5.64858119 11.84765625 6.82421875 C12.89953125 7.4275 13.95140625 8.03078125 15.03515625 8.65234375 C20.21904274 11.59658996 25.45238571 14.44831228 30.69140625 17.29296875 C31.65038818 17.81415283 32.60937012 18.33533691 33.59741211 18.87231445 C35.81542479 20.07655346 38.03418245 21.27938757 40.25390625 22.48046875 C39.92390625 23.14046875 39.59390625 23.80046875 39.25390625 24.48046875 C37.07546997 25.1741333 37.07546997 25.1741333 34.15283203 25.80566406 C32.51183029 26.16679291 32.51183029 26.16679291 30.837677 26.53521729 C29.63698578 26.79043152 28.43629456 27.04564575 27.19921875 27.30859375 C25.95510223 27.5800824 24.71098572 27.85157104 23.4291687 28.13128662 C20.0906542 28.85977891 16.75004166 29.5781589 13.40887451 30.29437256 C10.1216273 31.00056882 6.83629395 31.71546353 3.55078125 32.4296875 C-0.34370399 33.27612645 -4.23845991 34.12113224 -8.13446045 34.96057129 C-14.61022558 36.3567528 -21.07970439 37.7745588 -27.54003906 39.24023438 C-28.77626007 39.51977966 -30.01248108 39.79932495 -31.28616333 40.08734131 C-33.62173739 40.61715894 -35.95633519 41.15130525 -38.2897644 41.69049072 C-39.33125641 41.92636902 -40.37274841 42.16224731 -41.44580078 42.40527344 C-42.35266632 42.61367859 -43.25953186 42.82208374 -44.19387817 43.0368042 C-46.76501204 43.48375741 -49.14209531 43.56115551 -51.74609375 43.48046875 C-52.08809328 39.73120799 -52.41803546 35.98097301 -52.74609375 32.23046875 C-52.84148437 31.18632812 -52.936875 30.1421875 -53.03515625 29.06640625 C-53.65861502 21.8520976 -53.86302222 14.72029007 -53.74609375 7.48046875 C-44.44019869 4.74112781 -34.99918907 2.50555284 -25.58251953 0.18359375 C-23.20597094 -0.40553174 -20.83291923 -1.00612865 -18.4609375 -1.61328125 C-16.77677734 -2.0309375 -16.77677734 -2.0309375 -15.05859375 -2.45703125 C-14.12660156 -2.69292969 -13.19460938 -2.92882812 -12.234375 -3.171875 C-7.51203903 -3.83166762 -4.03688012 -2.34413964 0 0 Z " fill="#FCBB25" transform="translate(419.74609375,220.51953125)"/>
<path d="M0 0 C1.48898804 0.84884766 1.48898804 0.84884766 3.00805664 1.71484375 C4.1233374 2.34318115 5.23861816 2.97151855 6.38769531 3.61889648 C7.56466538 4.29648497 8.74150235 4.97430467 9.91821289 5.65234375 C11.1250599 6.33706185 12.33250169 7.02073265 13.54052734 7.70336914 C15.92560623 9.05317613 18.30726056 10.40870733 20.68579102 11.77001953 C24.30906383 13.8399242 27.94558457 15.88505071 31.58642578 17.92382812 C34.3883744 19.49320852 37.18472431 21.07237471 39.98071289 22.65234375 C38.98071289 24.65234375 38.98071289 24.65234375 37.01318359 25.35083008 C36.15297607 25.5598999 35.29276855 25.76896973 34.40649414 25.984375 C33.44074463 26.2222876 32.47499512 26.4602002 31.47998047 26.70532227 C30.42834717 26.95596436 29.37671387 27.20660645 28.29321289 27.46484375 C27.20613037 27.73417725 26.11904785 28.00351074 24.99902344 28.28100586 C19.85546352 29.54233778 14.71965411 30.73383434 9.51196289 31.69921875 C-4.74106084 34.41255735 -17.2960762 39.86863622 -30.34397888 46.01031494 C-36.76527905 49.02546037 -43.25864846 51.86542063 -49.77752686 54.662323 C-51.61201145 55.45096844 -53.44288566 56.24799513 -55.27368164 57.04516602 C-56.93052979 57.75757446 -56.93052979 57.75757446 -58.62084961 58.484375 C-59.5936084 58.90436768 -60.56636719 59.32436035 -61.56860352 59.75708008 C-64.01928711 60.65234375 -64.01928711 60.65234375 -67.01928711 60.65234375 C-66.07053711 59.76546875 -65.12178711 58.87859375 -64.14428711 57.96484375 C-56.19762589 49.97050256 -49.8373194 40.52874525 -43.45678711 31.27734375 C-42.89765625 30.469021 -42.33852539 29.66069824 -41.76245117 28.82788086 C-39.21980329 25.09724391 -36.80851292 21.38732984 -34.71850586 17.3828125 C-28.23673528 5.03715693 -14.71470206 -6.56789483 0 0 Z " fill="#4DE065" transform="translate(371.019287109375,193.34765625)"/>
<path d="M0 0 C6.13655567 5.25990486 11.81216561 10.38402906 17.0234375 16.53125 C21.78284751 21.99739082 26.96770619 27.03954909 32.125 32.125 C44.58560867 44.41328547 44.58560867 44.41328547 48 49 C48 49.66 48 50.32 48 51 C40.17772527 54.51542415 32.3533729 58.02614034 24.52481079 61.52754211 C20.8869816 63.15467177 17.25140202 64.7866925 13.6171875 66.421875 C12.20334202 67.05257007 10.78930345 67.68283259 9.375 68.3125 C7.59222656 69.11107422 7.59222656 69.11107422 5.7734375 69.92578125 C3 71 3 71 0 71 C0 47.57 0 24.14 0 0 Z " fill="#FCDB56" transform="translate(256,414)"/>
<path d="M0 0 C4.15749432 0.60078573 7.18465474 2.0049004 10.83203125 4.0625 C11.95375732 4.6908374 13.0754834 5.3191748 14.23120117 5.96655273 C15.42505311 6.6442176 16.61881791 7.322036 17.8125 8 C19.0287055 8.68429264 20.24525973 9.36796585 21.4621582 10.05102539 C23.86787009 11.40280865 26.27141563 12.75831096 28.67285156 14.11767578 C31.5573661 15.7495812 34.44522546 17.37520209 37.3359375 18.99609375 C40.89397971 20.99150035 44.44844441 22.99307196 48 25 C47 27 47 27 44.98486328 27.71435547 C44.10556152 27.92979004 43.22625977 28.14522461 42.3203125 28.3671875 C41.33691895 28.61130371 40.35352539 28.85541992 39.34033203 29.10693359 C38.27927246 29.36039551 37.21821289 29.61385742 36.125 29.875 C35.04976074 30.13748535 33.97452148 30.3999707 32.86669922 30.67041016 C6.66955275 37 6.66955275 37 2 37 C0.72569204 24.63480695 -0.3487441 12.43853948 0 0 Z " fill="#45C867" transform="translate(363,191)"/>
</svg>
