<?xml version="1.0" encoding="UTF-8"?>
<svg version="1.1" xmlns="http://www.w3.org/2000/svg" width="512" height="512">
<path d="M0 0 C5.49081263 3.56226887 9.44765617 8.64534819 13.26856995 13.86564636 C24.13410533 28.5661391 37.33359116 45.97191511 56.45263672 48.88134766 C72.78303464 50.91029899 89.75501564 49.95110702 106.08787537 48.30207825 C114.97945943 47.52467774 114.97945943 47.52467774 119.42919922 49.59716797 C121.79107187 54.71370217 120.96092008 59.21520425 120.3141613 64.72115517 C116.19432825 100.3447244 116.19432825 100.3447244 129.28358459 132.25105286 C139.97898785 144.83635505 152.95560519 155.60375757 166.14013672 165.47073364 C168.94363071 167.77589719 168.99127297 168.93672903 169.5 172.625 C169.40974415 178.27221088 165.86761393 181.23482984 162 185 C159.76387927 186.8384917 157.47021028 188.55887702 155.13435364 190.26856995 C140.4338609 201.13410533 123.02808489 214.33359116 120.11865234 233.45263672 C118.08970101 249.78303464 119.04889298 266.75501564 120.69792175 283.08787537 C121.47532226 291.97945943 121.47532226 291.97945943 119.40283203 296.42919922 C114.28629783 298.79107187 109.78479575 297.96092008 104.27884483 297.3141613 C68.6552756 293.19432825 68.6552756 293.19432825 36.74894714 306.28358459 C24.16364495 316.97898785 13.39624243 329.95560519 3.52926636 343.14013672 C1.22410281 345.94363071 0.06327097 345.99127297 -3.625 346.5 C-9.27221088 346.40974415 -12.23482984 342.86761393 -16 339 C-17.8384917 336.76387927 -19.55887702 334.47021028 -21.26856995 332.13435364 C-32.13410533 317.4338609 -45.33359116 300.02808489 -64.45263672 297.11865234 C-80.78303464 295.08970101 -97.75501564 296.04889298 -114.08787537 297.69792175 C-122.97945943 298.47532226 -122.97945943 298.47532226 -127.42919922 296.40283203 C-129.79107187 291.28629783 -128.96092008 286.78479575 -128.3141613 281.27884483 C-124.19432825 245.6552756 -124.19432825 245.6552756 -137.28358459 213.74894714 C-147.97898785 201.16364495 -160.95560519 190.39624243 -174.14013672 180.52926636 C-176.94363071 178.22410281 -176.99127297 177.06327097 -177.5 173.375 C-177.40974415 167.72778912 -173.86761393 164.76517016 -170 161 C-167.76387927 159.1615083 -165.47021028 157.44112298 -163.13435364 155.73143005 C-148.4338609 144.86589467 -131.02808489 131.66640884 -128.11865234 112.54736328 C-126.08970101 96.21696536 -127.04889298 79.24498436 -128.69792175 62.91212463 C-129.47532226 54.02054057 -129.47532226 54.02054057 -127.40283203 49.57080078 C-122.28629783 47.20892813 -117.78479575 48.03907992 -112.27884483 48.6858387 C-76.6552756 52.80567175 -76.6552756 52.80567175 -44.74894714 39.71641541 C-32.16364495 29.02101215 -21.39624243 16.04439481 -11.52926636 2.85986328 C-8.51253695 -0.80902293 -4.44227825 -0.93936433 0 0 Z M-6.77011108 22.5430603 C-7.48196564 23.26538849 -8.19382019 23.98771667 -8.92724609 24.73193359 C-10.1389296 25.95352676 -10.1389296 25.95352676 -11.37509155 27.19979858 C-12.24904572 28.09034943 -13.12299988 28.98090027 -14.0234375 29.8984375 C-14.92115875 30.80373199 -15.81888 31.70902649 -16.74380493 32.64175415 C-20.11400572 36.04064155 -23.47525819 39.4482721 -26.83587646 42.85662842 C-30.12204544 46.18855923 -33.41570485 49.51296515 -36.7109375 52.8359375 C-37.5808432 53.72243988 -38.4507489 54.60894226 -39.34701538 55.52230835 C-40.56815536 56.753358 -40.56815536 56.753358 -41.81396484 58.00927734 C-42.52741058 58.73319672 -43.24085632 59.45711609 -43.97592163 60.20297241 C-47.94972445 63.73101431 -50.86178005 64.25441195 -56.14550781 64.31884766 C-57.38649231 64.33871735 -58.62747681 64.35858704 -59.90606689 64.37905884 C-61.25508445 64.39093424 -62.60410389 64.40259715 -63.953125 64.4140625 C-65.33747506 64.43277907 -66.72181378 64.45235285 -68.10614014 64.4727478 C-71.74252627 64.52402362 -75.37894937 64.56367346 -79.01550293 64.60089111 C-82.72917797 64.64095945 -86.44269983 64.69203884 -90.15625 64.7421875 C-97.43739482 64.83889283 -104.71861389 64.92331463 -112 65 C-112.00364563 65.76341705 -112.00729126 66.52683411 -112.01104736 67.31338501 C-112.04898025 74.52271015 -112.10589207 81.73152155 -112.18390274 88.94051552 C-112.22334168 92.64639634 -112.25554734 96.35204084 -112.27099609 100.05810547 C-112.2861869 103.63753427 -112.32067373 107.21631324 -112.36830902 110.79545212 C-112.38309816 112.15806796 -112.39103961 113.5207766 -112.39188385 114.88347244 C-112.40830813 128.10575479 -112.40830813 128.10575479 -117 133 C-117.61679626 133.65833832 -118.23359253 134.31667664 -118.86907959 134.9949646 C-121.17911355 137.41293646 -123.54257478 139.76739178 -125.921875 142.1171875 C-126.78186096 142.97434357 -127.64184692 143.83149963 -128.52789307 144.71463013 C-131.26391992 147.43950106 -134.00683393 150.15731821 -136.75 152.875 C-138.61113645 154.72610075 -140.47181876 156.57765824 -142.33203125 158.4296875 C-146.88277276 162.9584295 -151.43918238 167.48140685 -156 172 C-154.56073901 175.30002149 -152.78247174 177.45210188 -150.22460938 179.97070312 C-149.45040649 180.73829956 -148.67620361 181.505896 -147.87854004 182.29675293 C-147.04205933 183.11663696 -146.20557861 183.936521 -145.34375 184.78125 C-144.05664124 186.0569989 -144.05664124 186.0569989 -142.74353027 187.35852051 C-140.00042222 190.07718441 -137.25101319 192.78933693 -134.5 195.5 C-130.87970268 199.0671971 -127.26598778 202.64087133 -123.65625 206.21875 C-122.81976929 207.03863403 -121.98328857 207.85851807 -121.12145996 208.70324707 C-120.34725708 209.47084351 -119.5730542 210.23843994 -118.77539062 211.02929688 C-118.09303345 211.70118042 -117.41067627 212.37306396 -116.7076416 213.06530762 C-113.24209857 216.99163484 -112.74459755 219.94300098 -112.68115234 225.14550781 C-112.66128265 226.38649231 -112.64141296 227.62747681 -112.62094116 228.90606689 C-112.60906576 230.25508445 -112.59740285 231.60410389 -112.5859375 232.953125 C-112.56722093 234.33747506 -112.54764715 235.72181378 -112.5272522 237.10614014 C-112.47597638 240.74252627 -112.43632654 244.37894937 -112.39910889 248.01550293 C-112.35904055 251.72917797 -112.30796116 255.44269983 -112.2578125 259.15625 C-112.16110717 266.43739482 -112.07668537 273.71861389 -112 281 C-111.23658295 281.00364563 -110.47316589 281.00729126 -109.68661499 281.01104736 C-102.47728985 281.04898025 -95.26847845 281.10589207 -88.05948448 281.18390274 C-84.35360366 281.22334168 -80.64795916 281.25554734 -76.94189453 281.27099609 C-73.36246573 281.2861869 -69.78368676 281.32067373 -66.20454788 281.36830902 C-64.84193204 281.38309816 -63.4792234 281.39103961 -62.11652756 281.39188385 C-48.89424521 281.40830813 -48.89424521 281.40830813 -44 286 C-43.34166168 286.61679626 -42.68332336 287.23359253 -42.0050354 287.86907959 C-39.58706354 290.17911355 -37.23260822 292.54257478 -34.8828125 294.921875 C-34.02565643 295.78186096 -33.16850037 296.64184692 -32.28536987 297.52789307 C-29.56049894 300.26391992 -26.84268179 303.00683393 -24.125 305.75 C-22.27389925 307.61113645 -20.42234176 309.47181876 -18.5703125 311.33203125 C-14.0415705 315.88277276 -9.51859315 320.43918238 -5 325 C-1.69997851 323.56073901 0.45210188 321.78247174 2.97070312 319.22460938 C3.73829956 318.45040649 4.505896 317.67620361 5.29675293 316.87854004 C6.11663696 316.04205933 6.936521 315.20557861 7.78125 314.34375 C8.63174927 313.48567749 9.48224854 312.62760498 10.35852051 311.74353027 C13.07718441 309.00042222 15.78933693 306.25101319 18.5 303.5 C22.0671971 299.87970268 25.64087133 296.26598778 29.21875 292.65625 C30.03863403 291.81976929 30.85851807 290.98328857 31.70324707 290.12145996 C32.47084351 289.34725708 33.23843994 288.5730542 34.02929688 287.77539062 C35.03712219 286.75185486 35.03712219 286.75185486 36.06530762 285.7076416 C39.99163484 282.24209857 42.94300098 281.74459755 48.14550781 281.68115234 C50.00698456 281.65134781 50.00698456 281.65134781 51.90606689 281.62094116 C53.25508445 281.60906576 54.60410389 281.59740285 55.953125 281.5859375 C57.33747506 281.56722093 58.72181378 281.54764715 60.10614014 281.5272522 C63.74252627 281.47597638 67.37894937 281.43632654 71.01550293 281.39910889 C74.72917797 281.35904055 78.44269983 281.30796116 82.15625 281.2578125 C89.43739482 281.16110717 96.71861389 281.07668537 104 281 C104.00364563 280.23658295 104.00729126 279.47316589 104.01104736 278.68661499 C104.04898025 271.47728985 104.10589207 264.26847845 104.18390274 257.05948448 C104.22334168 253.35360366 104.25554734 249.64795916 104.27099609 245.94189453 C104.2861869 242.36246573 104.32067373 238.78368676 104.36830902 235.20454788 C104.38309816 233.84193204 104.39103961 232.4792234 104.39188385 231.11652756 C104.40830813 217.89424521 104.40830813 217.89424521 109 213 C109.9251944 212.01249252 109.9251944 212.01249252 110.86907959 211.0050354 C113.17911355 208.58706354 115.54257478 206.23260822 117.921875 203.8828125 C118.78186096 203.02565643 119.64184692 202.16850037 120.52789307 201.28536987 C123.26391992 198.56049894 126.00683393 195.84268179 128.75 193.125 C130.61113645 191.27389925 132.47181876 189.42234176 134.33203125 187.5703125 C138.88277276 183.0415705 143.43918238 178.51859315 148 174 C146.56073901 170.69997851 144.78247174 168.54789812 142.22460938 166.02929688 C141.45040649 165.26170044 140.67620361 164.494104 139.87854004 163.70324707 C139.04205933 162.88336304 138.20557861 162.063479 137.34375 161.21875 C136.48567749 160.36825073 135.62760498 159.51775146 134.74353027 158.64147949 C132.00042222 155.92281559 129.25101319 153.21066307 126.5 150.5 C122.87970268 146.9328029 119.26598778 143.35912867 115.65625 139.78125 C114.81976929 138.96136597 113.98328857 138.14148193 113.12145996 137.29675293 C112.34725708 136.52915649 111.5730542 135.76156006 110.77539062 134.97070312 C110.09303345 134.29881958 109.41067627 133.62693604 108.7076416 132.93469238 C105.24209857 129.00836516 104.74459755 126.05699902 104.68115234 120.85449219 C104.65134781 118.99301544 104.65134781 118.99301544 104.62094116 117.09393311 C104.60906576 115.74491555 104.59740285 114.39589611 104.5859375 113.046875 C104.56722093 111.66252494 104.54764715 110.27818622 104.5272522 108.89385986 C104.47597638 105.25747373 104.43632654 101.62105063 104.39910889 97.98449707 C104.35904055 94.27082203 104.30796116 90.55730017 104.2578125 86.84375 C104.16110717 79.56260518 104.07668537 72.28138611 104 65 C103.23658295 64.99635437 102.47316589 64.99270874 101.68661499 64.98895264 C94.47728985 64.95101975 87.26847845 64.89410793 80.05948448 64.81609726 C76.35360366 64.77665832 72.64795916 64.74445266 68.94189453 64.72900391 C65.36246573 64.7138131 61.78368676 64.67932627 58.20454788 64.63169098 C56.84193204 64.61690184 55.4792234 64.60896039 54.11652756 64.60811615 C43.73744813 64.5952236 39.23401528 63.15326178 31.77050781 55.96582031 C30.15984172 54.34140468 28.55431187 52.71188508 26.953125 51.078125 C26.10071228 50.21813904 25.24829956 49.35815308 24.37005615 48.47210693 C21.65849123 45.73618013 18.953497 42.99389795 16.25 40.25 C12.6775309 36.62455872 9.09865191 33.00562879 5.515625 29.390625 C4.6916925 28.55009583 3.86776001 27.70956665 3.01885986 26.84356689 C2.25756775 26.07566833 1.49627563 25.30776978 0.71191406 24.51660156 C0.0416217 23.83583557 -0.62867065 23.15506958 -1.3192749 22.45367432 C-3.69457033 20.39925985 -4.41273455 20.48806263 -6.77011108 22.5430603 Z " fill="#000000" transform="translate(260,83)"/>
</svg>
